<?xml version="1.0" standalone="no"?>
<!DOCTYPE svg PUBLIC "-//W3C//DTD SVG 20010904//EN"
 "http://www.w3.org/TR/2001/REC-SVG-20010904/DTD/svg10.dtd">
<svg version="1.0" xmlns="http://www.w3.org/2000/svg"
 width="454.000000pt" height="781.000000pt" viewBox="0 0 454.000000 781.000000"
 preserveAspectRatio="xMidYMid meet">
<metadata>
Created by potrace 1.16, written by Peter Selinger 2001-2019
</metadata>
<g transform="translate(0.000000,781.000000) scale(0.100000,-0.100000)"
fill="#000000" stroke="none">
<path d="M2425 7780 c-121 -18 -213 -56 -299 -124 -32 -25 -64 -46 -72 -46 -7
0 -20 -10 -28 -21 -12 -18 -22 -21 -55 -16 -46 6 -46 6 -26 -32 13 -26 13 -30
-1 -42 -8 -7 -32 -15 -52 -18 -30 -5 -37 -11 -43 -36 -4 -17 -19 -58 -33 -92
-57 -135 -96 -418 -77 -562 6 -48 11 -136 11 -195 0 -119 3 -129 68 -201 80
-90 89 -138 41 -233 -36 -72 -232 -282 -337 -362 -117 -88 -367 -207 -582
-277 -237 -77 -389 -194 -405 -312 -4 -30 -19 -69 -37 -95 -19 -29 -32 -66
-38 -104 -4 -33 -15 -73 -24 -90 -9 -17 -32 -99 -51 -182 -19 -86 -49 -185
-69 -229 -28 -60 -38 -99 -46 -177 -22 -208 -33 -279 -51 -333 -32 -92 -86
-372 -115 -596 -21 -159 -27 -254 -28 -390 0 -165 2 -189 28 -290 38 -150 97
-294 173 -428 103 -181 121 -224 138 -327 16 -99 27 -124 112 -232 36 -45 45
-68 58 -134 8 -45 24 -90 35 -104 55 -68 55 -68 36 -108 -39 -81 -27 -255 20
-311 l24 -29 -30 -49 c-37 -60 -63 -172 -49 -213 6 -17 22 -33 41 -41 19 -8
36 -25 44 -45 17 -42 34 -297 34 -526 l0 -178 693 0 693 0 29 87 c26 81 29 86
36 58 4 -16 10 -56 14 -88 l6 -57 669 0 668 0 6 54 c6 41 17 67 47 107 21 29
39 59 39 66 0 8 -10 67 -21 131 -19 104 -21 140 -16 332 3 118 11 240 18 270
14 68 74 198 121 265 54 75 65 103 83 201 19 104 40 150 102 218 55 61 76 101
69 130 -3 12 2 35 10 51 9 17 25 57 36 90 11 33 56 115 99 181 54 83 87 146
103 195 13 41 39 110 59 154 50 115 106 284 127 387 11 49 24 96 31 104 10 12
9 42 -4 142 -9 70 -18 161 -21 202 -2 41 -13 100 -24 130 -12 30 -32 86 -47
123 -14 38 -32 117 -40 175 -8 59 -19 123 -25 142 -6 19 -21 85 -35 146 -30
138 -64 229 -116 312 -59 93 -76 139 -103 275 -13 67 -36 163 -49 212 -14 50
-31 117 -37 149 -11 53 -19 66 -70 115 -88 86 -99 120 -54 174 29 34 27 78 -4
109 -24 23 -190 92 -357 148 -227 76 -609 221 -627 238 -22 19 -23 55 -3 72 8
7 22 37 31 66 13 47 24 60 74 99 59 46 66 58 85 147 3 18 13 29 28 32 12 3 34
7 48 10 49 10 93 50 124 112 17 33 39 72 51 86 12 15 27 48 34 73 17 59 3 108
-47 167 -49 58 -103 144 -113 179 -10 34 2 51 124 176 l80 82 -64 93 c-192
280 -371 476 -507 557 -87 51 -243 111 -285 110 -18 -1 -55 -5 -83 -9z m1109
-4306 c3 -9 13 -75 22 -148 18 -147 38 -213 83 -279 34 -50 39 -78 16 -97 -23
-19 -18 -54 15 -120 17 -33 30 -65 30 -71 0 -6 -13 -27 -30 -46 -32 -36 -34
-42 -30 -115 2 -43 -2 -51 -44 -96 -26 -27 -59 -73 -75 -103 -36 -65 -34 -72
-58 176 -12 118 -18 268 -18 435 0 234 2 263 23 350 25 99 37 130 51 130 5 0
12 -7 15 -16z m-2555 -227 c15 -81 26 -294 17 -339 -3 -20 -21 -55 -40 -79
-18 -24 -42 -73 -54 -109 -26 -82 -52 -143 -57 -138 -9 8 -45 201 -47 248 -2
38 4 58 34 107 46 78 55 106 73 234 8 59 19 119 25 134 15 41 36 17 49 -58z"/>
</g>
</svg>
