<?xml version="1.0" standalone="no"?>
<!DOCTYPE svg PUBLIC "-//W3C//DTD SVG 20010904//EN"
 "http://www.w3.org/TR/2001/REC-SVG-20010904/DTD/svg10.dtd">
<svg version="1.0" xmlns="http://www.w3.org/2000/svg"
 width="784.000000pt" height="1280.000000pt" viewBox="0 0 784.000000 1280.000000"
 preserveAspectRatio="xMidYMid meet">
<metadata>
Created by potrace 1.15, written by Peter Selinger 2001-2017
</metadata>
<g transform="translate(0.000000,1280.000000) scale(0.100000,-0.100000)"
fill="#000000" stroke="none">
<path d="M3185 12784 c-298 -56 -587 -194 -747 -357 -181 -184 -344 -550 -626
-1407 -162 -493 -250 -799 -322 -1123 -107 -477 -277 -992 -353 -1068 -16 -17
-65 -57 -107 -89 -96 -73 -128 -112 -184 -220 -135 -261 -244 -716 -435 -1825
-105 -608 -162 -866 -275 -1250 -109 -372 -159 -729 -123 -872 57 -222 244
-400 527 -503 132 -49 241 -63 415 -56 171 7 186 3 206 -63 15 -52 4 -69 -80
-125 -81 -54 -101 -81 -101 -136 0 -74 54 -141 125 -154 49 -9 137 10 207 45
131 66 393 244 540 366 94 78 118 86 213 71 99 -15 119 -6 243 120 l103 104
69 -41 c95 -57 133 -96 125 -130 -15 -62 -182 -298 -459 -651 -277 -352 -437
-615 -549 -900 -153 -390 -232 -898 -231 -1485 1 -225 5 -287 43 -620 23 -203
44 -380 46 -392 l5 -23 1687 0 1686 0 -8 308 c-37 1553 -19 1933 114 2359 63
203 64 210 56 678 -8 499 3 637 55 665 9 5 174 25 366 45 581 60 956 104 1019
122 33 9 100 34 148 55 48 21 95 38 103 38 38 0 94 41 223 165 141 136 187
170 216 159 21 -8 35 -45 35 -89 0 -19 4 -36 9 -39 4 -3 48 26 97 64 48 38
100 74 115 79 30 10 59 -5 218 -114 138 -95 236 -120 236 -60 0 11 -41 55 -95
103 -242 214 -310 283 -336 339 -31 64 -220 262 -270 282 -17 7 -37 24 -45 39
-25 51 -53 72 -118 92 -169 49 -368 52 -495 5 l-76 -28 -107 26 c-136 33 -318
53 -598 67 -121 6 -256 13 -300 16 l-81 5 -38 167 c-45 197 -88 332 -147 462
-55 121 -64 203 -27 236 12 11 39 27 58 34 56 21 120 79 165 149 87 135 118
242 119 411 2 181 -18 209 -274 401 -178 133 -299 239 -523 454 l-159 153 16
182 c23 260 22 305 -10 368 -47 94 -163 180 -309 228 -104 34 -145 59 -145 88
0 28 39 86 134 201 172 207 287 449 366 773 34 139 47 172 61 151 32 -51 -24
-405 -97 -607 -19 -51 -34 -103 -34 -115 0 -21 0 -21 19 -2 47 50 122 321 142
514 7 67 9 161 5 230 -17 307 -18 463 -2 691 29 424 18 650 -49 1060 -48 288
-69 347 -190 526 -145 213 -324 412 -404 447 -25 11 -66 37 -90 58 -123 108
-502 184 -716 143z m679 -3763 c9 -13 -28 -40 -83 -62 -84 -32 -134 -20 -95
22 30 34 164 64 178 40z m246 -31 c0 -38 -121 -170 -175 -190 -81 -31 -73 12
19 97 86 80 156 122 156 93z m-2791 -2791 c6 -18 18 -84 27 -148 8 -64 18
-127 21 -141 5 -24 5 -25 13 -4 12 30 25 37 40 19 15 -18 17 -69 7 -155 -8
-74 1 -102 30 -84 12 7 21 30 26 65 15 106 58 94 76 -21 12 -72 34 -100 81
-100 18 0 37 -11 60 -36 29 -33 36 -36 72 -31 34 5 41 2 50 -19 6 -13 14 -24
17 -24 4 0 29 23 56 51 28 28 69 59 91 69 23 10 60 37 82 59 22 23 50 41 61
41 18 0 21 -6 21 -37 0 -21 -5 -55 -11 -76 -13 -49 -6 -56 31 -29 79 59 97 29
290 -478 124 -326 133 -353 134 -416 0 -60 -15 -84 -53 -84 -48 0 -86 35 -215
200 -87 110 -166 188 -204 201 -45 15 -97 4 -125 -27 -20 -22 -36 -26 -113
-34 -103 -10 -121 -15 -129 -39 -12 -39 -231 -194 -353 -250 -50 -23 -53 -24
-89 -8 -21 9 -59 19 -86 23 -61 8 -142 61 -229 151 l-68 68 45 210 c91 421
179 760 250 965 53 153 73 178 94 119z m4691 -980 c106 -13 130 -24 155 -74
13 -24 38 -49 64 -65 24 -14 49 -36 57 -50 33 -60 6 -210 -57 -318 -26 -45
-34 -53 -52 -48 -81 23 -254 39 -527 51 -173 7 -327 18 -341 23 -66 26 -73 68
-34 204 14 47 34 126 45 174 12 49 23 95 25 102 6 16 540 17 665 1z m-4326
-1245 c27 -27 18 -55 -32 -104 -89 -85 -296 -197 -424 -228 -58 -15 -143 -15
-169 -2 -42 23 -13 60 116 145 245 161 458 240 509 189z"/>
</g>
</svg>
